<svg width="24" height="24" viewBox="0 0 24 24" fill="none" xmlns="http://www.w3.org/2000/svg">
  <path fill-rule="evenodd" clip-rule="evenodd"
    d="M22.9275 0.133473C23.0271 0.202539 23.1084 0.294698 23.1646 0.402064C23.2207 0.509429 23.25 0.628804 23.25 0.749973V23.25C23.25 23.4489 23.171 23.6397 23.0303 23.7803C22.8897 23.921 22.6989 24 22.5 24H18C17.8011 24 17.6103 23.921 17.4697 23.7803C17.329 23.6397 17.25 23.4489 17.25 23.25V21H15.75V23.25C15.75 23.4489 15.671 23.6397 15.5303 23.7803C15.3897 23.921 15.1989 24 15 24H1.5C1.30109 24 1.11032 23.921 0.96967 23.7803C0.829018 23.6397 0.75 23.4489 0.75 23.25V14.25C0.750082 14.0724 0.813135 13.9007 0.927945 13.7653C1.04275 13.6299 1.20187 13.5396 1.377 13.5105L9.75 12.1155V5.24997C9.75 5.09742 9.79652 4.94849 9.88336 4.82307C9.97019 4.69764 10.0932 4.60167 10.236 4.54797L22.236 0.0479727C22.3494 0.00547042 22.4713 -0.00895239 22.5915 0.00593675C22.7117 0.0208259 22.8264 0.0645843 22.926 0.133473H22.9275ZM11.25 5.76897V12.75C11.2499 12.9275 11.1869 13.0992 11.0721 13.2347C10.9572 13.3701 10.7981 13.4604 10.623 13.4895L2.25 14.8845V22.5H14.25V20.25C14.25 20.0511 14.329 19.8603 14.4697 19.7196C14.6103 19.579 14.8011 19.5 15 19.5H18C18.1989 19.5 18.3897 19.579 18.5303 19.7196C18.671 19.8603 18.75 20.0511 18.75 20.25V22.5H21.75V1.83297L11.25 5.76897Z"
    fill="white" />
  <path fill-rule="evenodd" clip-rule="evenodd" d="M9.75 23.25V12.75H11.25V23.25H9.75Z" fill="white" />
  <path
    d="M3.75 16.5H5.25V18H3.75V16.5ZM6.75 16.5H8.25V18H6.75V16.5ZM3.75 19.5H5.25V21H3.75V19.5ZM6.75 19.5H8.25V21H6.75V19.5ZM15.75 4.5H17.25V6H15.75V4.5ZM18.75 4.5H20.25V6H18.75V4.5ZM12.75 7.5H14.25V9H12.75V7.5ZM15.75 7.5H17.25V9H15.75V7.5ZM18.75 7.5H20.25V9H18.75V7.5ZM15.75 10.5H17.25V12H15.75V10.5ZM18.75 10.5H20.25V12H18.75V10.5ZM12.75 10.5H14.25V12H12.75V10.5ZM12.75 13.5H14.25V15H12.75V13.5ZM15.75 13.5H17.25V15H15.75V13.5ZM18.75 13.5H20.25V15H18.75V13.5ZM12.75 16.5H14.25V18H12.75V16.5ZM15.75 16.5H17.25V18H15.75V16.5ZM18.75 16.5H20.25V18H18.75V16.5Z"
    fill="white" />
</svg>